<svg xmlns="http://www.w3.org/2000/svg" viewBox="0 0 32 32" fill="none">
  <rect width="32" height="32" rx="8" fill="#2B7A78"/>
  <path d="M12.813 19.904L12 22.75l-.813-2.846a4.5 4.5 0 00-3.09-3.09L5.25 16l2.846-.813a4.5 4.5 0 003.09-3.09L12 9.25l.813 2.846a4.5 4.5 0 003.09 3.09L18.75 16l-2.846.813a4.5 4.5 0 00-3.09 3.09zM21.259 12.715L21 13.75l-.259-1.035a3.375 3.375 0 00-2.455-2.456L17.25 10l1.036-.259a3.375 3.375 0 002.455-2.456L21 6.25l.259 1.035a3.375 3.375 0 002.455 2.456L24.75 10l-1.036.259a3.375 3.375 0 00-2.455 2.456z" fill="white"/>
</svg>
